<svg width="22" height="23" viewBox="0 0 22 23" fill="none" xmlns="http://www.w3.org/2000/svg">
<path d="M10.083 6.356h2.469a.458.458 0 0 0 .41-.255l.622-1.254a.436.436 0 0 1 .51-.231c.601.172 1.862.587 2.868 1.281 3.542 2.656 3.212 8.608 3.185 9.865a.465.465 0 0 1-.06.219c-1.817 3.208-4.97 3.208-4.97 3.208l-1.07-2.224m-2.13-10.61H9.451a.458.458 0 0 1-.41-.253l-.626-1.256a.436.436 0 0 0-.51-.23c-.6.171-1.862.587-2.869 1.281-3.542 2.656-3.211 8.608-3.184 9.865a.465.465 0 0 0 .059.219c1.818 3.208 4.97 3.208 4.97 3.208l1.073-2.224m-1.537-.526c.55.206 1.058.381 1.537.526m7.631-.526a24.44 24.44 0 0 1-1.539.526m-6.092 0c2.24.674 3.852.674 6.092 0m-4.879-5.11a.917.917 0 1 1-1.833 0 .917.917 0 0 1 1.833 0Zm5.502 0a.917.917 0 1 1-1.834 0 .917.917 0 0 1 1.834 0Z" stroke="#23232D" stroke-width="1.5" stroke-linecap="round" stroke-linejoin="round"/>
</svg>

