<svg width="22" height="23" viewBox="0 0 22 23" fill="none" xmlns="http://www.w3.org/2000/svg">
<path d="M9.167 14.605a3.41 3.41 0 0 0-.917 2.365v3.135m4.583-5.5a3.41 3.41 0 0 1 .917 2.365v3.135m-5.5-1.788c-.82.327-1.71.44-2.585.33-1.393-.476-1.027-1.741-1.742-2.264a2.173 2.173 0 0 0-1.173-.403m14.667-6.188c0 2.75-1.788 4.813-6.417 4.813-4.63 0-6.417-2.063-6.417-4.813a5.775 5.775 0 0 1 .624-2.75c-.312-1.347-.193-3.006.476-3.336.67-.33 2.081.275 3.245 1.054A11.788 11.788 0 0 1 11 4.576a11.79 11.79 0 0 1 2.072.165c1.164-.779 2.64-1.356 3.245-1.054.605.303.788 1.99.476 3.337a5.77 5.77 0 0 1 .624 2.768Z" stroke="#23232D" stroke-width="1.5" stroke-linecap="round" stroke-linejoin="round"/>
</svg>

