<svg width="22" height="23" viewBox="0 0 22 23" fill="none" xmlns="http://www.w3.org/2000/svg">
<path d="M7.333 10.939v4.583m2.75-5.5v1.833m0 3.667v-3.456c0-.655.463-1.22 1.106-1.348l1.285-.257a1.833 1.833 0 0 1 2.193 1.797v3.264M7.333 8.19h.01M2.75 11.855c0-2.304 0-3.456.324-4.382A5.775 5.775 0 0 1 6.618 3.93c.926-.325 2.078-.325 4.382-.325s3.456 0 4.382.325a5.775 5.775 0 0 1 3.544 3.543c.324.926.324 2.078.324 4.382 0 2.305 0 3.457-.324 4.383a5.775 5.775 0 0 1-3.544 3.543c-.926.325-2.078.325-4.382.325s-3.456 0-4.382-.325a5.775 5.775 0 0 1-3.544-3.543c-.324-.926-.324-2.078-.324-4.383Z" stroke="#23232D" stroke-width="1.5" stroke-linecap="round" stroke-linejoin="round"/>
</svg>

