<svg width="14" height="14" viewBox="0 0 14 14" fill="none" xmlns="http://www.w3.org/2000/svg">
<path d="M6.64322 6.64731L2.64453 10.646L3.35164 11.3531L7.35033 7.35441L6.64322 6.64731Z" fill="#F0F0F0"/>
<path d="M7.50089 14C7.43756 14.0002 7.37478 13.9883 7.31589 13.965C7.23397 13.9324 7.16215 13.8786 7.10771 13.8093C7.05327 13.7399 7.01814 13.6574 7.00589 13.57L6.50589 10.07L7.50589 9.93003L7.88089 12.565L9.50089 11.26V7.50003C9.50051 7.43423 9.51312 7.369 9.538 7.30808C9.56288 7.24716 9.59955 7.19175 9.64589 7.14503L11.6809 5.11003C12.1002 4.69356 12.4328 4.19806 12.6593 3.65222C12.8859 3.10638 13.002 2.52103 13.0009 1.93003V1.00003H12.0709C11.4799 0.998908 10.8945 1.11499 10.3487 1.34157C9.80285 1.56814 9.30736 1.90071 8.89089 2.32003L6.85589 4.35503C6.80917 4.40137 6.75376 4.43803 6.69284 4.46292C6.63192 4.4878 6.56669 4.50041 6.50089 4.50003H2.74089L1.43589 6.13003L4.07089 6.50503L3.93089 7.50503L0.430887 7.00503C0.343558 6.99278 0.261022 6.95765 0.191651 6.90321C0.12228 6.84877 0.0685419 6.77695 0.035887 6.69503C0.00282748 6.61254 -0.00765039 6.52274 0.005532 6.43485C0.0187144 6.34697 0.0550807 6.26419 0.110887 6.19503L2.11089 3.69503C2.15695 3.63519 2.21597 3.58655 2.28351 3.55278C2.35106 3.51901 2.42537 3.50097 2.50089 3.50003H6.29589L8.18089 1.61003C8.69047 1.09758 9.29672 0.691398 9.96447 0.415026C10.6322 0.138655 11.3482 -0.00240356 12.0709 3.09839e-05H13.0009C13.2661 3.09839e-05 13.5205 0.105388 13.708 0.292924C13.8955 0.480461 14.0009 0.734815 14.0009 1.00003V1.93003C14.0033 2.65271 13.8623 3.36869 13.5859 4.03645C13.3095 4.7042 12.9033 5.31045 12.3909 5.82003L10.5009 7.70503V11.5C10.5005 11.5751 10.4833 11.6492 10.4504 11.7167C10.4175 11.7842 10.3698 11.8435 10.3109 11.89L7.81089 13.89C7.72292 13.9606 7.61367 13.9994 7.50089 14Z" fill="#F0F0F0"/>
</svg>
