<svg width="22" height="23" viewBox="0 0 22 23" fill="none" xmlns="http://www.w3.org/2000/svg">
<path d="m18.15 3.605-5.7 6.514m-8.738 9.986 6.08-6.947m2.659-3.04L8.495 4.535c-.24-.34-.361-.51-.517-.633a1.375 1.375 0 0 0-.463-.24c-.19-.056-.399-.056-.815-.056H5.152c-.688 0-1.032 0-1.217.143a.687.687 0 0 0-.268.518c-.009.233.19.514.587 1.075l5.537 7.817m2.66-3.04 5.844 8.252c.398.56.597.841.587 1.075a.688.688 0 0 1-.267.518c-.186.142-.53.142-1.217.142H15.85c-.417 0-.625 0-.815-.056a1.376 1.376 0 0 1-.463-.24c-.156-.122-.276-.292-.517-.632l-4.265-6.02" stroke="#23232D" stroke-width="1.5" stroke-linecap="round" stroke-linejoin="round"/>
</svg>

