<svg width="204" height="51" viewBox="0 0 204 51" fill="none" xmlns="http://www.w3.org/2000/svg">
<path d="M98.078 5.10751C98.0501 4.49244 97.9475 4.38993 97.3232 4.34333C97.2113 4.33401 97.0995 4.34333 96.9877 4.34333C94.0428 4.34333 91.0886 4.34333 88.1437 4.34333C88.0039 4.34333 87.8548 4.33401 87.715 4.35265C87.1652 4.39925 87.0813 4.48312 87.0534 5.02364C87.044 5.21934 87.0534 5.42437 87.0534 5.62007C87.0534 9.61802 87.0627 13.616 87.044 17.6046C87.044 18.0053 87.2677 18.5645 86.7831 18.7509C86.3451 18.9279 86.0376 18.4527 85.7207 18.1824C84.3601 17.0175 82.8224 16.216 81.0518 15.8992C77.818 15.3121 74.6774 15.7035 71.63 16.8684C67.3245 18.5086 64.4915 21.6771 62.7208 25.8335C60.8104 30.3067 60.8849 34.8732 62.3481 39.4489C63.718 43.7544 66.551 46.7645 70.6981 48.5165C72.7949 49.4018 74.9756 49.9796 77.2495 50.1847C80.4367 50.4736 83.3816 49.8119 86.0655 48.0506C86.8949 47.5007 87.6498 46.8577 88.3767 46.1867C88.8054 45.7953 89.0197 45.8326 89.3179 46.3172C89.5509 46.6993 89.7466 47.1186 89.961 47.51C90.9208 49.2621 90.4828 49.1129 92.6729 49.1223C94.1453 49.1223 95.6177 49.1316 97.0902 49.1502C97.873 49.1595 98.0501 49.0011 98.0687 48.2369C98.078 48.0412 98.0687 47.8362 98.0687 47.6405C98.0687 40.6697 98.0687 33.6989 98.0687 26.7188C98.0687 19.7201 98.0687 12.7213 98.0687 5.71326C98.0873 5.50824 98.0873 5.31253 98.078 5.10751ZM82.3565 39.6912C81.4618 39.9987 80.5392 40.1106 79.6073 40.1478C76.4294 40.1385 73.7828 38.4611 72.6831 35.7119C71.1734 31.9562 72.7017 26.1969 78.9549 25.6098C81.7787 25.3489 84.0339 26.402 85.8046 28.5827C88.5258 31.9562 87.4261 37.9485 82.3565 39.6912Z" fill="#FAFAFA"/>
<path d="M35.928 16.6168C34.176 16.5981 32.4147 16.5981 30.6627 16.5795C29.9917 16.5702 29.535 16.8218 29.2648 17.4648C29.0318 18.0053 28.7336 18.5272 28.4447 19.0491C27.8855 20.0369 27.7644 20.0649 27.0002 19.2728C25.5464 17.7724 23.7851 16.7938 21.7814 16.244C19.2 15.5357 16.5813 15.4891 13.9533 15.8899C9.75962 16.5422 6.27423 18.4993 3.78599 21.9287C-0.31447 27.5576 -1.08797 33.7549 1.48414 40.1944C3.38527 44.9473 6.96385 48.0972 11.9496 49.495C14.5777 50.2313 17.2616 50.2126 19.9549 49.8492C21.8653 49.5882 23.6453 49.0104 25.2389 47.9015C25.9378 47.4169 26.5529 46.8297 27.1586 46.224C27.6246 45.758 27.783 45.7767 28.1185 46.3451C28.482 46.9509 28.8361 47.566 29.1157 48.2183C29.4232 48.9172 29.9637 49.1968 30.672 49.1502C32.2003 49.0664 33.7287 49.1409 35.257 49.113C35.5087 49.113 35.7696 49.1223 36.0212 49.113C36.804 49.0943 36.8786 49.0104 36.8972 48.2183C36.8972 48.0506 36.8972 47.8828 36.8972 47.7057C36.8972 42.7759 36.8972 37.846 36.8972 32.9161C36.8972 31.248 36.8972 29.5705 36.8972 27.9024C36.8972 24.4729 36.8972 21.0434 36.8972 17.6139C36.8693 16.682 36.8227 16.6261 35.928 16.6168ZM21.2223 39.5607C20.1692 39.9428 19.0882 40.1106 17.9792 40.1385C15.3605 40.0547 13.2823 39.0202 11.9683 36.6811C9.58256 32.4315 11.4184 27.4178 15.9103 25.9174C19.5075 24.7152 25.2016 26.4579 25.9937 32.0122C26.3758 34.7334 25.0245 38.1908 21.2223 39.5607Z" fill="#FAFAFA"/>
<path d="M195.548 17.3809C190.534 15.0605 185.371 14.9859 180.19 16.8963C176.201 18.3688 173.238 20.9875 171.476 24.8736C169.668 28.8529 169.361 33.0093 170.218 37.2589C170.843 40.3715 172.306 43.0461 174.626 45.2361C178.121 48.5258 182.408 49.8399 187.086 50.1008C189.36 50.2313 191.615 50.0542 193.87 49.7467C196.182 49.4298 198.409 48.7961 200.506 47.743C201.037 47.4821 201.242 47.1373 201.233 46.5408C201.205 44.4999 201.223 42.459 201.223 40.4181C201.223 39.4862 201.018 39.3371 200.096 39.5607C200.012 39.5794 199.937 39.6073 199.853 39.6353C196.377 40.9586 192.771 41.3314 189.09 41.2102C187.272 41.1543 185.483 40.912 183.824 40.0733C182.128 39.2159 180.945 37.9299 180.376 35.9728C180.805 35.9728 181.112 35.9728 181.42 35.9728C187.915 35.9728 194.402 35.9728 200.897 35.9728C201.121 35.9728 201.354 35.9635 201.577 35.9728C202.09 35.9821 202.453 35.7771 202.603 35.2646C202.659 35.0782 202.742 34.8918 202.798 34.7054C203.451 32.534 203.628 30.316 203.329 28.0701C202.668 23.103 200.077 19.4778 195.548 17.3809ZM180.395 29.1232C180.907 26.7002 182.24 25.0134 184.57 24.156C186.909 23.2893 189.183 23.5037 191.373 24.6593C193.144 25.5912 193.926 27.1382 194.075 29.1325C189.537 29.1232 185.017 29.1232 180.395 29.1232Z" fill="#FAFAFA"/>
<path d="M172.734 17.5301C173.098 16.7938 172.977 16.5888 172.119 16.5888C171.607 16.5888 171.104 16.6168 170.591 16.6168C168.065 16.6075 165.549 16.6168 163.024 16.5795C162.148 16.5702 161.561 16.9336 161.225 17.7258C161.123 17.9587 161.02 18.1917 160.918 18.4247C159.007 22.9911 156.826 27.4457 154.972 32.0401C154.86 32.3104 154.72 32.562 154.385 32.5713C154.003 32.5806 153.826 32.3197 153.723 32.0122C153.201 30.3347 152.381 28.7691 151.701 27.1568C150.387 24.0535 149.045 20.9689 147.74 17.8656C147.367 16.9709 146.818 16.5236 145.802 16.5702C144.329 16.6261 142.857 16.5888 141.385 16.5888C141.385 16.5981 141.305 16.5795 141.305 16.5888C140.876 16.5888 140.522 16.5888 140.094 16.5888C138.929 16.5795 137.792 16.5981 136.627 16.5888C135.891 16.5888 135.765 16.7938 136.073 17.4648C136.175 17.6978 136.315 17.9121 136.427 18.1358C139.092 23.5782 141.757 29.0207 144.423 34.4538C146.613 38.927 148.803 43.4096 150.983 47.8828C151.533 49.0011 151.794 49.1596 153.024 49.113C153.76 49.085 154.506 49.0384 155.233 49.1036C157.414 49.29 157.376 48.88 158.131 47.3516C162.129 39.188 166.108 31.0243 170.106 22.8607C170.973 21.0807 171.858 19.31 172.734 17.5301Z" fill="#FAFAFA"/>
<path d="M60.3724 25.2278C60.363 22.4227 60.363 19.6176 60.3537 16.8125C60.3537 16.6168 60.3537 16.4118 60.3444 16.2161C60.3351 15.7967 60.1114 15.6103 59.7014 15.5917C59.1329 15.5637 58.5738 15.6569 58.0053 15.7221C55.545 15.9924 53.355 16.8964 51.5005 18.5552C51.2022 18.8161 50.9413 19.1237 50.6338 19.366C50.2796 19.6549 50.0187 19.5989 49.8323 19.1703C49.59 18.6297 49.4036 18.0613 49.2079 17.5021C48.947 16.7566 48.7606 16.5888 47.9871 16.5795C45.8344 16.5702 43.6816 16.5702 41.5289 16.5981C40.1683 16.6168 40.1683 16.6447 40.1683 17.9774C40.1683 22.9352 40.1683 27.9024 40.1683 32.8602C40.1683 37.7901 40.1683 42.7293 40.1683 47.6592C40.1683 47.8828 40.1589 48.1158 40.1683 48.3395C40.2149 48.9732 40.3081 49.085 40.9324 49.085C44.0823 49.0943 47.2229 49.0943 50.3728 49.085C50.9972 49.085 51.109 48.9546 51.1556 48.3488C51.1743 48.1251 51.1556 47.8922 51.1556 47.6685C51.1556 43.2139 51.1556 38.7686 51.1556 34.314C51.1556 33.4939 51.2116 32.6738 51.37 31.8631C51.8732 29.3096 53.3177 27.5762 55.8246 26.7841C56.9429 26.4299 58.0892 26.2902 59.2541 26.2902C60.2139 26.3088 60.3817 26.1317 60.3724 25.2278Z" fill="#FAFAFA"/>
<path d="M119.922 15.6103C119.41 15.6103 118.906 15.6755 118.403 15.7221C115.691 16.0017 113.334 17.0641 111.386 18.9839C111.265 19.105 111.153 19.2355 111.022 19.338C110.622 19.6548 110.379 19.6176 110.165 19.1516C109.923 18.639 109.727 18.1078 109.578 17.5673C109.354 16.7752 109.121 16.5981 108.31 16.5981C106.13 16.5888 103.949 16.5888 101.768 16.6168C100.548 16.6354 100.548 16.654 100.548 17.8749C100.548 22.8607 100.548 27.8558 100.548 32.8415C100.548 37.9392 100.548 43.0461 100.548 48.1437C100.548 49.0756 100.585 49.1133 101.489 49.1133C104.014 49.1133 106.531 49.1133 109.056 49.1133C109.68 49.1133 110.305 49.1036 110.929 49.1133C111.321 49.1222 111.507 48.9359 111.507 48.5538C111.507 48.3301 111.516 48.0971 111.516 47.8735C111.516 43.3909 111.526 38.9177 111.507 34.4351C111.507 33.643 111.554 32.8509 111.693 32.0681C112.169 29.3748 113.66 27.5575 116.325 26.7654C117.369 26.4579 118.431 26.3647 119.512 26.3088C120.696 26.2435 120.696 26.2529 120.696 25.1159C120.696 23.1309 120.696 21.1459 120.696 19.1609C120.696 18.229 120.705 17.2878 120.686 16.3558C120.668 15.7314 120.537 15.601 119.922 15.6103Z" fill="#FAFAFA"/>
<path d="M133.323 16.6168C130.378 16.5981 127.424 16.5981 124.479 16.5888C123.128 16.5888 123.128 16.5888 123.128 17.9401C123.128 27.8371 123.128 37.7248 123.128 47.6219C123.128 47.8176 123.119 48.0226 123.128 48.2183C123.165 49.0384 123.221 49.0943 124.013 49.0943C127.191 49.1036 130.36 49.1036 133.538 49.0943C134.358 49.0943 134.404 49.0291 134.432 48.2276C134.442 48.0319 134.432 47.8269 134.432 47.6312C134.432 42.7293 134.432 37.818 134.432 32.9161C134.432 27.8651 134.432 22.8234 134.432 17.7724C134.432 16.6447 134.423 16.6261 133.323 16.6168Z" fill="#FAFAFA"/>
<path d="M128.869 0.000572309C125.402 0.0471685 122.671 2.80566 122.69 6.24446C122.709 9.52483 125.551 12.302 128.897 12.3113C132.261 12.3113 135.15 9.43164 135.141 6.08604C135.122 2.75907 132.242 -0.0460239 128.869 0.000572309Z" fill="#FAFAFA"/>
</svg>
