<svg xmlns="http://www.w3.org/2000/svg" width="4095" height="2150" fill="none"><path fill="#fff" d="M2043.13 1295.72c14.29-.68 25.73-.33 38.98 2.91 31.99 7.82 57.27 26.54 69.42 43.46-10.69 14.28-24.37 29.94-39.86 42.91-7.16-5.21-14.34-10.65-22.53-15.43-7.49-4.38-19.43-10.37-31.7-9.97-5.35.17-9.5 1.73-12.49 3.97-32.34 24.13 56.75 46.63 80.61 63.13 15.94 11.03 23.33 24.31 28.09 37.76 10.03 28.35 4.19 61.96-28.33 86.09-16.52 12.27-36.82 18.74-64.57 21.36-13.26.28-25.97-1.25-37.85-4.31-37.15-9.57-58.8-29.2-71.74-48.94 3.91-6.73 10.08-12.91 14.97-19.45 4.84-6.45 8.3-13.52 14.06-19.74 2.25-2.43 1.84-3.06 6.88-3.95 17.14 6.23 24.8 17.63 43.83 23.92 7.95 2.64 16.36 3.84 25.61 2.61 6.82-.9 13.94-3.23 17-6.71 2.72-3.09 2.62-7.05 1.91-10.37-4.55-21.25-51.53-30.68-76.23-44.98-13.47-7.82-22.31-17.46-28.28-27.45-16.87-28.21-15.79-63.4 11.3-89.83 13.68-13.36 32.99-22.68 60.92-26.99Zm189.31-64.06c11.33.41 22.64.11 33.99.03 10.09-.07 26.59-.95 34.08 2.88 8.97 14.07 3.88 50.45 3.7 66.73 11.5-.51 32.39-2.73 42.05 1.23 4.45 1.82 4.77 3.11 5.24 5.92 1.36 8.13 4 52.33-2.39 56.42-13.98 1.94-31.52.73-46.05.67-1.79 21.9-.27 44.17-.28 66.11-.02 17.42-2.26 35.8 1.08 53.12.93 4.81 2.26 11.44 8.18 15.31 5.78 3.77 30.21 2.9 39.5 3.11 1.69 15.43 2.81 32.74.43 48.11-1.09 7.1-3.11 10.22-13.49 14.94-10.28 3.08-20.98 5.13-32.97 5.13-17.27-.01-34.08-3.94-46.23-10.3-52.44-27.5-38.1-83.09-37.89-118.76.29-25.75.16-51.5-.38-77.24-8.48.01-17.05.18-25.52.08-6.52-.07-10.6-.56-15.08-3.06-3.44-14.13-4.1-45.56 3.05-58.69 8.39-3.86 25.4-2.44 36.1-2.36 1.27-15.26-4.46-51.45 1.74-63.69 1.68-3.3 6-4.06 11.14-5.69Zm-476.22-43.15c22.5-1.5 126.74-2.47 144.22 1.47.17.42.38.84.52 1.26 4.25 12.56 1.66 26.84 1.56 39.64l-.38 69.92.36 179.98c0 24.83 1.16 49.73.44 74.55-.13 4.33-.32 6.58-4.84 10.23-19.02.25-56.68 3.03-72.21-2.35-7.97-10.56-2.51-266.18-3.35-303.84-20.8-.31-49.16 2.91-68.13-1.88-3.36-2.23-3.37-4.49-3.79-7.23-1.34-8.86-2.84-50.16.2-56.78 1.06-2.31 2.51-3.25 5.4-4.97Zm-495.79-433.575c13.75-.173 32.98-1.792 44.85 2.485 3.77 5.819 5.59 204.242.55 208.467-1.52 1.271-5.45 2.296-8.12 2.801-7.81 1.477-23.69 1.832-31.25-.093-5.02-3.032-5.74-6.51-7.31-10.35-8.51 5.694-17.32 11.336-30.78 13.844-11.48 2.139-21.58.952-32.05-1.884-17.73-7.724-29.54-20.663-36.2-32.022-17.34-29.493-16.77-73.285 12.25-100.808 6.99-6.626 19.19-15.645 34.03-17.639 25.21-3.386 32.74 5.442 51.04 10.982 6.85-5.215 1.89-63.964 2.99-75.783Zm-31.68 176.304c11.5-1.839 17.96-4.596 23.6-10.245 11.71-11.74 11.37-31.322 3.64-43.805-3.11-5.024-8.98-10.983-18.25-13.543-4.43-1.22-8.94-1.531-13.8-1.857-13.43 2.892-20.45 5.762-26.3 12.907-9.84 11.999-8.89 30.883 1.36 42.777 6.23 7.25 13.56 10.775 27.73 13.399l2.02.367Zm1654.92-109.843c10.88.113 29.67-.859 38.61 2.59-1.86 21.539-13.71 44.164-21.1 65.428-9.26 26.619-16.23 53.624-27.6 80.014-13.41.419-26.89.296-40.32.303-18.84-27.951-20.93-58.797-36.1-87.283-4.69 14.216-11.35 28.31-16.12 42.555-4.97 14.87-7.41 30.763-15.7 45.182-12.57.191-28.95 1.314-40.79-.857-10.42-8.853-23.88-59.226-27.77-72.562-7.8-10.685-18.44-61.001-21.31-74.55 13.89-.456 28.06-.044 41.99.079 7.69 28.378 16.94 56.633 27.77 84.728 7.09-11.762 9.52-24.513 13.5-36.655 5.32-16.368 11.4-32.665 18.23-48.877l42.31.321c11.11 29.272 20.1 58.611 32.35 87.815 6.33-15.019 21.09-79.333 28.42-86.615.74-.736 2.42-1.077 3.63-1.616Zm-2128.477-61.88c7.818.033 15.915-.053 23.653.578 16.93 1.379 29.36 5.652 39.49 12.849 28.744 20.422 30.791 55.037 23.442 79.024-4.544 14.829-14.912 31.508-39.506 40.416-18.039 6.534-34.904 6.359-55.325 4.121l.552 50.681.036 22.324c-13.902.409-30.094 1.939-42.901-1.468-3.06-2.216-2.938-4.557-3.234-7.171-2.636-23.328-.416-47.389-.57-70.813a4493.4 4493.4 0 0 1 .221-129.753c17.975-.559 36.134-.546 54.142-.788Zm-5.949 94.867c13.296-.087 25.071.109 37.306-3.012 11.463-9.665 14.861-22.855 9.635-33.93-2.57-5.444-8.608-10.804-18.232-13.547-8.277-2.359-17.675-1.745-26.744-1.538-7.05 6.611-4.227 43.033-1.965 52.027Zm1142.746-35.32c10.21-.64 19.78-.245 29.18 2.091 24.67 6.121 38.47 19.916 47.4 32.804 19.31 27.85 18.11 63.517-5.9 90.495-10.58 11.895-25.15 22.562-49.41 27.245-7.51.468-15.16.295-22.41-.905-22.12-3.661-36.66-13.247-46.43-23.823-25.26-27.363-26.6-64.785-7.23-93.236 10.43-15.323 26.03-27.583 54.8-34.671Zm16.43 111.718c15.47-5.355 21.98-13.4 25.96-22.708 5.22-12.185 3.62-29.257-9.71-39.779-5.72-4.523-11.24-7.245-21.61-8.255-1.26-.116-2.51-.224-3.77-.323-13.66 3.735-19.78 9.053-24.43 16.691-7.84 12.847-8.2 31.345 4.38 43.327 5.51 5.237 12.98 9.195 24.24 10.596 2.34.291 2.81.301 4.94.451Zm377.46-175.073 48.93-.333c-.44 27.236-.5 54.474-.17 81.71 3.57-3.849 7.33-7.909 12.53-11.223 7-4.452 15.59-7.424 26.81-7.616 9.79-.168 17.92 1.692 24.78 5.339 36.26 19.288 30.4 57.429 30.58 82.24l.14 45.738c-.03 2.996.83 14.471-3.72 16.268-7.31 2.891-26.66 2.531-35.49 1.617-14.76-8.312-7.84-54.782-7.59-67.498.43-9.957 1.01-21.779-5.11-31.296-2.5-3.877-6.82-7.317-14.42-8.841-4.36-.874-8.54-1.175-12.71.159-9.87 3.164-13.93 11.274-15.7 16.834-5.27 16.54-2.02 52.93-2.38 71.274-.09 4.766 1.55 13.052-1.95 17.281-1.07 1.3-4.73 1.831-7.22 2.104-9.24 1.013-25.91 1.492-33.89-1.351-2.44-1.801-2.9-3.062-3.11-5.204-2.9-28.901.14-58.657-.33-87.672-.64-39.551-4.72-80.09.02-119.53Zm-1239.54 63.473c10.27-.225 20.08.284 29.41 2.748 22.56 5.963 34.75 18.912 42.62 30.916 19.67 30.009 19.11 65.322-7.88 94.135-11.16 11.919-25.34 20.266-49.61 24.622-10 .393-18.9-.056-27.99-2.489-22.75-6.092-35.883-19.269-43.975-31.463-19.583-29.51-16.935-67.656 9.913-95.751 10.682-11.183 24.652-18.835 47.512-22.718Zm7.01 112.462c11.98-2.173 18.86-4.594 24.58-10.685 12.01-12.791 11.41-32.2 2.03-45.517-3.5-4.958-9.45-10.774-18.94-13.165-2.97-.747-6.12-1.079-9.32-1.4-15.38 4.361-22 9.667-27.06 18.431-7.37 12.766-6.58 31.066 6.12 42.776 5.97 5.503 10.97 8.025 22.59 9.56Zm2215.28-177.704c12.49-.067 26.75-.962 37.77 2.555 7.55 11.669 2.35 59.323 2.47 74.609.11 13.548 1.44 27.118 2.6 40.651 17.18-15.847 29.59-33.792 45.77-50.088 15.9.173 31.73.254 47.55 1.245-14.12 20.881-33.97 40.355-50 60.82 8.57 9.845 14.2 20.725 20.92 30.99 8.8 13.417 18.56 26.658 29.24 39.696 2.04 2.382 4.52 4.932 5.9 7.436 1.38 2.48-.14 3.842-2.49 5.913-10.94 3.461-29.88 1.731-42.35 1.503-15.05-16.488-26.63-34.829-38.81-51.995-5.41 4.638-11.36 9.055-17.3 13.505.76 12.888 1.3 25.779 1.59 38.672-14.01.208-29.05 1.2-42.44-1.253-4.71-2.799-4.61-6.065-5.08-9.717-4.53-35.68-1.02-77.7-1.11-114.004l-.07-54.81c0-9.798-1.13-20.167.84-29.9.53-2.614 1.75-3.868 5-5.828Zm-271.75 64.102c13.58-.211 25.13.474 36.3 4.872 26.08 10.281 37.95 31.973 42.68 48.207 3.14 10.799 8.25 30.075-4.62 39.353-14.42 4.99-75.21 2.611-94.82 2.627 1.58 5.706 3.65 12.03 10.51 16.709 5.23 3.562 12.07 5.934 20.64 6.502 15.88 1.051 28.97-3.149 40.94-7.982 7.6 6.049 13.56 12.989 19.96 19.425-1.22 1.977-2.46 3.903-4.16 5.783-7.3 8.058-20.08 13.938-36.32 16.598-15.5 2.539-32.19 2.245-46.6-1.893-24.16-6.938-37.18-22.5-44.55-35.799-15.99-28.858-13.94-66.918 14.78-93.53 10.17-9.412 24.89-17.874 45.26-20.872Zm18.88 62.955c6.56-.07 10.5.373 16.1-1.511 2.53-3.592 1.53-6.844-1.7-10.234-4.09-4.298-14.49-11.268-23.67-12.557-3.33-.47-6.83-.234-10.21-.07-10.43 4.093-22.25 12.075-24.57 18.957-.63 1.836.04 2.329 1.07 4.028 8.34 3.219 32.78 1.496 42.98 1.387Zm-498.4-61.969c13.23-.861 24.48-.725 36.03 3.11 23.77 7.896 34.52 24.241 40.45 37.997 4.9 11.366 14.54 39.514-.62 49.163-9.74 6.204-73.86 3.827-91.99 3.856 1.2 3.704 2.52 7.638 5.32 11.102 3.91 4.827 10.46 9.165 20.16 10.912 15.51 2.792 31.36-.96 45.18-4.484 7.55 5.999 14.28 12.219 18.76 19.03-5.75 8.227-18.39 16.494-33.58 20.375-12.6 3.217-27.39 2.966-40.33.382-24.01-4.79-39.42-17.23-48.92-29.206-23.04-29.043-18.82-67.879 4.46-96.531 9.54-11.74 22.1-20.795 45.08-25.706Zm9.27 61.433c8.45.099 20.2 1.03 27.98-.701 3.01-2.258 4.01-3.399 3.24-6.216-1.16-4.261-10.99-13.95-17.98-16.164-3.71-1.175-8.21-1.493-12.43-1.689-14.12 2.572-20.49 7.723-27.14 14.482-2.47 2.508-3.08 4.41-3.05 7.207 1.44 1.248 1.87 2.387 4.7 2.839 7.11 1.134 17.22.354 24.68.242Zm633.93-61.306c12.5-.368 22.19-.038 32.8 3.781 25.09 9.025 36.54 26.22 42.15 41.247 4.05 10.85 12.23 36.671-2.53 45.77-9.37 5.782-78.36 3.554-95.83 3.643 2.48 3.93 4.7 8.177 8.31 11.868 4.6 4.716 12.87 9.059 22.9 10.328 16.32 2.067 30.63-2.534 43.88-6.865 5.76 5.627 9.84 11.722 14.28 17.661 1.21 2.585-.37 4.929-2.46 7.28-6.94 7.831-21.99 14.494-37.65 17.069-12.27 2.019-24.99 1.206-36.31-1.926-23.04-6.376-38.01-19.699-45.69-32.406-16.94-28.067-15.58-69.824 10.69-96.333 10.2-10.296 24.28-17.557 45.46-21.117Zm-26.72 62.659 32.4-.303 34-.293c-4.45-7.58-9.02-20.776-23.77-24.588-3.47-.895-7.55-.994-11.31-1.187-17.46 4.731-23.46 12.9-29.11 22.222-.83 1.377-1.53 2.749-2.21 4.149ZM1438.91 822.15c13.66-.225 26.72-.111 40.32.637 2.18 21.661.34 43.8.28 65.518-.09 26.998 1.21 54.001.73 80.995-8.13.315-16.35.704-24.5.767-6.22.048-12.64-.387-16.85-3.109-6.95-4.483-4.97-13.692-5.12-19.187-4.04 5.163-7.88 10.486-14.26 15.002-6.54 4.636-15.92 9.998-27.72 10.279-7.76.184-14.57-2.237-19.84-4.985-30.67-15.976-31.98-42.813-32.29-63.921l-.41-81.453c15-.156 30.05-.006 45.06.005l-.7 54.036c-.13 11.741-1.96 24.415 1.84 36.015 1.94 5.937 4.98 13.148 15.42 16.592 4.25 1.403 10.7 1.926 15.41 1.072 28.72-5.201 19.42-75.274 19.43-90.339 0-4.622-1.79-12.453 1.94-16.631.39-.439.84-.862 1.26-1.293Zm622.35-72.413c9.58-.256 17.82-.373 25.36 3.159 8.16 3.818 9.92 11.678 10.39 17.04.53 5.997 2.19 18.584-5.71 23.103-8.05-.13-17.29-.854-23.49 2.484-10.85 5.837-8.5 17.757-8.42 25.271 11.98.463 24.02-.831 34.68 2.683.88 1.382.96 1.345 1.48 3.048 2.15 6.923 2.65 27.396-5.52 32.731-10.12.604-20.18.571-30.36.596-.23 35.8-.06 71.6.5 107.399-1.73.613-2.86 1.081-4.7 1.525-9.82 2.37-24.81 2.175-34.73.038-1.29-.768-2.91-1.416-3.88-2.305-4.55-4.148-1.03-93.525-.96-105.826-8.24-.537-16.42-1.286-24.61-1.984-.27-10.726-2.56-22.575.83-33.145 4.78-2.678 10.81-2.576 17.5-3.071 9.13-6.315 2.47-40.812 12.82-54.014 7.61-9.709 21.01-14.69 38.82-18.732Zm-489.74 70.4c12.66-.631 23.1.109 34.62 3.164 14.25 3.779 26.82 9.917 31.7 18.088 7.6 12.702-12.7 24.823-22.96 35.642-4.09-3.181-8.12-6.448-12.58-9.489-4.58-3.119-10.53-6.309-18.59-6.419-4.92-.067-8.61 1.05-12.21 2.683-14.85 6.718-20.25 17.507-21.29 27.45-1.11 10.463 3.41 27.193 17.72 34.849 4.73 2.529 10.46 3.955 17.26 3.866 7.87-.103 13.9-4.556 18.84-7.275 3.68-2.025 5.76-4.063 11.19-4.161 9.79 5.446 13.74 13.159 22.58 19.2l2.19 1.324c.23 2.299-.18 3.456-1.75 5.679-7.22 10.223-19.4 21.519-39.4 25.917-10.9 2.397-24.1 2.112-34.92-.261-21.13-4.633-34.21-16.302-42.03-27.085-21.83-30.104-25.39-68.668.88-98.341 10.64-12.023 24.63-20.304 48.75-24.831Zm620.05-35.593c15.01-.447 29.87-.474 44.92-.34.38 12.165.55 24.332.51 36.499 8.45.04 17.31-.313 25.42 1.073 8.44 8.14 3.76 27.028 3.52 36.486-10.43-.03-21.21-.941-29.42 2.923-2.04 8.982-4.58 65.182 3.04 71.042 8.13 1.479 17.14.665 25.61.377l-1.06 34.236c-5.78 2.791-12.84 4.809-20.75 5.25-10.96.61-23.14-.406-31.7-4.281-38.7-17.519-20.17-80.265-23.35-104.724-.35-2.672.32-2.881-3.75-4.714-4.75.116-8.99.144-13.74-.163-7.65-5.354-3.96-27.716-2.21-34.755 5.36-2.091 9.3-1.822 15.85-2.158 9.98-3.595.58-27.334 7.11-36.751ZM262.066 696.852c32.76 19.697 38.955 93.808 43.476 121.139 7-30.56 28.8-86.691 62.528-111.083 4.185-3.026 8.943-6.12 16.288-6.802l2.304 1.592c4.533 14.991-2.401 35.415-8.472 50.204-8.871 23.276-28.5 57.779-53.271 77.425-4.604 3.652-13.926 6.292-17.918 9.72-7.713 6.621 3.696 20.398-5.43 26.39l-3.676-.359c-20.674-11.463-33.966-34.589-39.462-49.921-7.595-21.191-16.757-102.502 3.633-118.305Zm1419.204 87.641c13.94-.115 27.68.014 41.61.448 1.76 12.278.31 25.178.28 37.523l28.51.314c.12 11.691.61 23.406-.67 35.082-8.87.455-17.91.532-26.81.77l-.26 54.854c.07 6.03-.88 14.101 7.79 18.602 3.44.554 7.18 1.065 10.41 1.886 4.59 1.163 7.24 2.924 8.58 5.477 4.23 8.08 2.73 22.871-4.36 30.296-10.24 2.648-24.92 3.068-35.68 1.125-56.56-10.217-17.37-92.653-33.57-111.838-6.48-1.848-14.95-1.153-22.17-1.017-2.02-9.926-9.19-23.987.83-32.843 7.19-2.461 12.65-2.2 20.93-2.536-.01-9.12-5.17-31.161 4.58-38.143ZM373.598 929.547c4.005 1.162 4.971 1.113 6.244 3.521 19.122 36.183-16.833 102.382-53.131 133.892-3.137.26-5.011.48-7.975 1.17-.154 4.77 4.621 9.43 4.195 14.3-.193 2.21.42 1.28-2.961 2.97-7.688-.11-13.54-2.76-19.089-5.32-39.574-18.22-58.422-53.73-62-80.401-1.605-8.29-3.894-36.674 2.514-43.425 4.692.06 6.798.76 10.25 2.447 28.418 13.888 58.906 70.049 61.382 90.719 2.676-1.19 4.051-35.84 5.115-40.53 5.841-25.714 21.409-58.123 53.836-78.352.533-.333 1.08-.661 1.62-.991Zm3346.502.961c3.48.994 5.85 1.83 8.63 3.29 42.27 22.145 52.93 84.462 54.8 114.572 10.81-27.48 24.73-55.745 49.16-80.823 4.41-4.528 9.07-9.276 18.66-10.9l3.67 1.329c10.19 11.451 4.29 30.529 3.28 43.174-7.04 28.25-20.81 55.48-58.35 76.92-6.38 3.64-12.14 6.99-21.91 7.23l-3.48-1.78c-3.02-4.5-.15-9.77 1.2-14.39-10.56-9.55-19.99-19.12-27.92-29.36-20.62-26.64-49.75-81.697-27.74-109.262Zm-.67-406.11c2.53.595 4.42 1.112 6.17 2.303 11.92 8.131 19.46 21.144 26.7 30.674 48.87 62.741 63.35 131.405 41.8 198.238-2.67 2.462-.98 1.38-5.06 3.243-.46-.193-.98-.355-1.39-.58-5.79-3.174-9.05-12.417-11.8-16.979-37.87-62.849-52.61-150.701-56.42-216.899Z"/><path fill="#fff" d="m373.166 524.547 2.487 1.521c4.415 13.389-1.131 29.909-3.218 43.553-8.704 56.927-17.422 116.646-48.806 171.557-2.487 4.352-7.584 15.197-15.014 17.329l-3.624-1.925c-1.214-2.006-2.29-3.983-3.129-6.044-24.434-60.038-.393-131.248 39.209-188.065 8.776-12.591 18.182-26.689 32.095-37.926Zm572.666 294.172c4.471.236 10.036.71 13.285 2.486 12.192 6.663 6.296 30.884 6.263 40.232-6.326-.636-12.844-1.37-19.28-1.58-6.701-.218-11.488.92-16.163 3.393-8.246 4.36-11.45 12.634-12.915 18.466-2.833 11.281-1.568 23.177-1.548 34.561l-.153 52.911c-13.514.377-31.984 1.758-44.799-.476-2.7-17.484-1.349-35.62-1.639-53.176a2612.02 2612.02 0 0 1-.305-93.678c11.163-.018 31.455-1.799 40.747 1.806 8.035 3.117 7.445 9.911 8.327 14.652 7.517-9.255 10.861-14.541 28.18-19.597ZM3392.11 1535.22c14.44-.51 28.98-.42 43.29.81 35.85 3.09 62.39 11.89 83.39 27.45-23.5 15.27-49.71 27.27-87.18 31.32-15.92 1.04-28.27-.17-42.99-3.49-23.67-5.34-69.18-25.13-77.18-37.81-1.71-2.72-.98-3.83 1.48-6.27 20.43-7.65 54.93-9.93 79.19-12.01Zm-2712.417-.1c34.424-3.29 78.634 4.69 110.65 11.07-2.184 2.62-4.714 5.12-7.347 7.62-21.179 20.13-45.384 33.26-88.266 39.76-26.333 1.62-50.226-.66-73.01-8.01-13.941-4.49-32.381-11.43-35.687-20.35-1.281-3.45.474-6.71 4.197-9.58 17.357-13.36 61.731-17.42 89.463-20.51Zm3001.117-169.98c16.29-.51 29.36.51 44.79 2.99-8.2 24.76-29.37 49.74-68.36 65.42-19.24 7.74-37 9.86-60.62 8.05-15.01-2.27-42.36-7.89-49.7-15.61-2.05-2.16-1.23-4.27.91-6.3 4.98-4.71 12.44-9.23 18.55-13.62 31.25-22.49 62.24-34.55 114.43-40.93Zm-3289.703-.07c10.397-.43 20.523-.6 30.858.29 49.553 4.31 89.869 27.48 117.488 48.12 3.997 2.98 10.514 8.05 8.587 11.88-2.811 5.58-16.042 9.21-24.58 12.32-15.172 4.99-32.692 6.74-50.184 4.58-31.334-3.88-56.522-18.37-72.568-32.33-10.343-8.99-30.238-29.1-25.29-39.53 4.021-3.15 9.3-3.96 15.689-5.33Zm-146.76-276.93c5.557.98 10.587 2.07 15.433 3.83 50.193 18.24 82.502 66.24 103.819 95.44 6.994 9.58 16.34 19.8 20.106 29.86-35.102-2.26-60.222-8.53-83.821-22.41-46.003-27.06-59.461-71.73-55.537-106.72Zm3599.843 1.29c2.61.11 4.54.5 7 .95 1.62 1.13 2.73 2.14 3.17 3.56 1.79 5.79-1.18 13.13-2.5 19.03-6.11 27.27-17.07 55.85-49.18 78.34-19.16 13.42-44.8 22.71-76.81 25.1-2.62.04-4.42-.31-6.91-.69l-.75-2.1c28.38-39.87 55.89-99.29 125.98-124.19Zm-3544.666 142.3c5.364.07 10.533.4 15.594 1.38 50.23 9.74 118.684 72.87 142.311 98.43-3.573.29-6.929.52-10.544.59-36.915.76-76.786-4.43-103.657-18.35-39.641-20.55-43.752-54.61-43.704-82.05Zm3490.336.71c3.44.19 3.5.44 6.14 1.48.86 1.31 1.49 2.31 1.71 3.7 3.31 20.3-12.51 57.36-38.18 73.24-28.91 17.87-69.59 19.89-110.91 21.78-3.41-.44-3.96-.7-6.49-1.86 0-1.08-.14-1.56.65-2.69 4.32-6.25 14.57-13.34 20.91-19.24 30.71-28.57 67.5-61.69 126.17-76.41Zm-3293.066 2.95c2.41 1.43 4.381 2.75 6.152 4.43 45.032 42.76 65.497 122.24 39.67 168.82a81.616 81.616 0 0 1-7.876-5.89c-52.738-45.58-61.666-116.52-37.946-167.36Zm3038.466 234.78c21.17-.67 53.24-1.25 70.32 6.54 4.89 2.23 7.16 4.85 7.04 8.28-.24 7.41-14.65 15.48-24.01 20.59-23.5 12.85-48.31 20.52-83.03 20.85-5.28-.5-10.57-1.04-15.72-1.81-16.62-2.48-54.51-12.72-61.24-21.48-2.01-2.62-1.97-3.91.84-6.33 13.41-11.59 79.29-24.26 105.8-26.64Zm60.98-231.99c4.17 1.32 5.95 2.24 7.57 4.59 4.53 6.52 4.84 15.52 6.52 22.46 11.88 48.84-9.12 96.64-49.84 140.55-3.99 1.74-1.75 1.12-6.73 1.87-1.26-1.28-1.62-1.53-2.48-3.11-5.53-10.18-4.48-22.69-4.66-33.25-.76-44.19 6.61-94.09 49.62-133.11ZM537.275 1469.1c19.154.15 36.24 1.51 54.485 4.62 20.402 3.48 68.356 14.96 77.595 24.56.208 1.87.105 2.93-1.514 4.66-8.394 8.95-38.659 17.4-55.878 20.93-16.565 1.78-31.523 2.45-48.289.5-28.163-3.29-61.629-20.82-75.759-33.47-3.342-3-5.115-5.37-3.378-8.86 10.582-6.76 36.577-11.63 52.738-12.94Zm3124.195-334.01c.68.18 1.39.33 2.03.55 4.34 1.45 5.96 5.13 7.16 7.55 21.57 43.33 25.17 86.05 4.65 129.65-6.02 12.82-12.79 25.39-25.85 36.77l-4.45 2.8-2.07-.85c-17.19-49.8-19.47-129.63 18.53-176.47Zm-3230.675 1.39c10.199 3.18 13.209 9.39 16.473 15.05 24.42 42.35 23.242 90.65 12.978 134.14-1.98 8.4-2.712 18.96-10.289 26.45-3.799-2.31-6.1-4.5-8.478-7.27-37.074-43.2-42.684-124.23-10.684-168.37Zm2783.715 436.53c24.87-1.29 54.2-.9 78.59 1.88 24.5 2.8 51.18 11.61 63.64 23.45 1.35 1.27 2.93 3.27 1.77 4.68-4.36 5.27-29.71 10.52-39.83 13.28-13.26 3.21-27.33 5.97-41.79 7.2-20.76 1.78-41.17.27-58.33-6.45-25.45-9.96-33.93-25.85-37.83-41.52l33.78-2.52Zm-2387.659 1.3c16.575-.51 70.966-3.27 83.68 1.52 4.157 1.56 5.747 3.27 6.267 5.94 1.763 9.09-16.128 23.88-27.395 30.14-16.948 9.42-33.834 12.7-57.72 13.2-35.657-1.83-64.697-11.33-90.964-23.59 4.69-4.21 10.17-8.49 16.245-12.19 18.911-11.54 42.694-13.69 69.887-15.02Zm2593.159-161.27c3.62-.18 4.05-.13 7.19.58 6 5.39 1 22.35-.32 28.84-7.36 36.31-37.71 70.24-92.15 93.35-5.1.67-2.74.85-7.11-.41-4.66-13.95 9.25-49.13 16.75-63.05 12.98-24.09 32.33-46.74 75.64-59.31Zm-2747.22-.78c19.982 3.51 36.257 13.65 47.785 22.59 31.275 24.26 42.002 52.31 48.909 80.85 1.6 6.62 4.682 14.36 2.28 20.88-21.347-3.79-40.812-15.07-53.678-24.47-35.863-26.23-55.519-67.99-45.296-99.85Zm118.577 54.42c12.786 1.68 25.709 6.25 36.036 10.52 54.768 22.62 82.344 57.9 89.95 93.44-29.47-5.29-61.372-15.21-82.591-27.31-35.303-20.13-45.076-50.22-43.395-76.65Zm2720.613-123.25c.53.24 1.08.47 1.58.73 8.78 4.69 8.03 23.29 8.66 30.19 3.35 36.77-24.2 79.62-71.61 106.86-2.49.67-.89.44-4.97-.05-9.3-10.55 5.09-56.67 10.05-70.77 8.08-22.95 17.12-52.81 56.29-66.96Zm-2927.375-1.29c7.113 1.8 11.113 4.12 15.747 7.46 39.46 28.45 48.956 70.41 53.338 104.61 1.074 8.38 3.378 18.02.766 26.28l-3.899 1.39c-36.387-14.61-56.123-43.51-64.919-66.21-5.886-15.19-17.7-60.26-1.033-73.53Zm3127.545-308.96c.71.14 1.45.26 2.13.43 7.47 1.89 10.21 5.86 13 9.69 24.54 33.64 23.34 113.44-5.1 147.36-3.25-1.81-4.78-4.55-6.22-6.87-24.46-39.61-39.75-113.22-3.81-150.61Zm-413.13 437.28c4.43-.02 3.44-.43 7.12 1.4 4.6 12.79-12.34 43.28-23.77 55.07-19.94 20.58-50.16 33.27-91.35 40.48-2.18.1-4.41-.16-6.57-.31-6.34-6.91 7.04-26.24 12.01-33.63 18.44-27.47 52.09-50.22 102.56-63.01ZM382.426 1032.33c2.733.82 4.728 1.67 6.221 3.18 5.044 5.12 6.052 11.96 8.409 17.57 19.479 46.31 5.522 90.29-19.001 135.12l-3.542.12c-3.417-1.12-4.657-1.84-6.413-3.81-16.04-18.01-17.618-87.78-10.618-108.74 4.883-14.62 14.642-29.63 24.944-43.44ZM3835.71 696.602c1.99.913 3.07 1.654 3.77 3.063 4.06 8.05 3.3 19.83 4.55 28.244 7.17 48.089 3.08 94.129-41.22 137.72-4.53-1.746-5.77-2.845-6.94-5.781-8.41-21.19 4.61-99.541 13.35-122.701 5.03-13.341 12.46-28.96 26.49-40.545Zm-115.19 115.554c3.56.631 6.25 1.73 8.82 3.159 49.76 27.618 66.22 95.824 62.07 132.657-5.55-.689-8.97-1.198-12.74-3.679-7.5-4.933-13.44-11.123-19.42-16.601-39.54-36.202-45.32-74.753-38.73-115.536Zm-3348.414-1.179c3.936 1.722 6.28 3.274 7.233 6.004 2.431 6.958.772 14.792.588 21.84-1.035 39.759-19.166 77.177-64.374 109.516-9.358-5.769-8.318-17.16-7.771-24.493 2.26-30.309 22.061-92.188 64.324-112.867Zm-134.079 23.789c.623.069 1.256.116 1.868.209 4.238.643 5.981 1.77 8.257 3.704 28.181 23.943 66.268 102.519 54.622 129.905-14.523-4.789-26.863-12.326-36.349-19.764-39.228-30.757-41.725-78.652-28.398-114.054Zm3616.513.429c.87.292 1.54.725 2.27 1.112 6.9 3.687 9.78 38.796 9.56 45.782-.98 31.751-22.38 62.497-65.85 84.844l-4.88.305c-2.21-1.45-3.17-2.303-3.68-4.19-1.59-5.922 3.42-15.047 4.99-21.242 7.89-31.311 17.81-83.169 57.59-106.611Z"/><path fill="#fff" d="M3712.54 698.75c39.42 15.326 64.8 68.6 73.21 93.414 3.86 11.371 13.31 35.884.02 45.901-32.59-20.493-53.62-54.447-65.97-80.268-6.17-12.908-20.08-47.724-7.26-59.047Z"/></svg>