<svg xmlns="http://www.w3.org/2000/svg" width="70" height="70" fill="none"><path stroke="#E0E0E0" stroke-linecap="round" stroke-linejoin="round" stroke-width="4" d="M24.167 9.822v50.355M45.833 9.822v50.355M59.375 35h-48.75m48.62-11.25H45.833m-21.666 0H10.755m48.49 22.5H45.833m-21.666 0H10.755m21.537 14.062h5.416c7.584 0 11.376 0 14.273-1.532 2.548-1.349 4.62-3.5 5.918-6.146 1.476-3.008 1.476-6.946 1.476-14.822v-5.625c0-7.875 0-11.813-1.476-14.821-1.298-2.646-3.37-4.798-5.918-6.146-2.897-1.533-6.689-1.533-14.273-1.533h-5.416c-7.584 0-11.376 0-14.273 1.533-2.548 1.348-4.62 3.5-5.918 6.146-1.476 3.008-1.476 6.946-1.476 14.821v5.625c0 7.876 0 11.814 1.476 14.822 1.298 2.646 3.37 4.797 5.918 6.146 2.897 1.532 6.689 1.532 14.273 1.532Z"/></svg>