<svg xmlns="http://www.w3.org/2000/svg" width="71" height="70" fill="none"><path stroke="#E0E0E0" stroke-linecap="round" stroke-linejoin="round" stroke-width="4" d="M40.746 8.072v3.094c0 4.55 0 6.825.886 8.563a8.124 8.124 0 0 0 3.55 3.551c1.739.886 4.014.886 8.564.886h3.095M40.746 8.072c-1.065-.156-2.34-.156-4.471-.156h-5.279c-6.067 0-9.1 0-11.418 1.18a10.834 10.834 0 0 0-4.734 4.735c-1.18 2.317-1.18 5.35-1.18 11.418v19.5c0 6.067 0 9.1 1.18 11.418a10.834 10.834 0 0 0 4.734 4.735c2.318 1.18 5.351 1.18 11.418 1.18h8.667c6.067 0 9.1 0 11.418-1.18a10.834 10.834 0 0 0 4.735-4.735c1.18-2.317 1.18-5.35 1.18-11.418V28.637c0-2.131 0-3.405-.155-4.471M40.746 8.072c.26.037.507.085.75.143 1.106.265 2.163.703 3.132 1.297 1.093.67 2.03 1.607 3.904 3.48l3.388 3.389c1.873 1.873 2.81 2.81 3.48 3.903.594.97 1.032 2.026 1.297 3.132.059.244.106.49.144.75M39.973 48.095a31.498 31.498 0 0 0 6.026-5.73.73.73 0 0 0 0-.922 31.498 31.498 0 0 0-6.026-5.73m-9.286 0a31.495 31.495 0 0 0-6.027 5.73.73.73 0 0 0 0 .922 31.495 31.495 0 0 0 6.027 5.73"/></svg>