<svg xmlns="http://www.w3.org/2000/svg" width="70" height="70" fill="none"><path stroke="#E0E0E0" stroke-linecap="round" stroke-linejoin="round" stroke-width="4" d="M56.663 32.29a8.125 8.125 0 0 0-8.125-8.125h-1.625c-1.006 0-1.51 0-1.93-.066a5.417 5.417 0 0 1-4.503-4.503c-.067-.421-.067-.924-.067-1.93V16.04a8.125 8.125 0 0 0-8.125-8.125m2.709 41.982a4.064 4.064 0 1 1-8.125 0 4.064 4.064 0 1 1 8.125 0Zm0 0v-18.09c0-1.652 1.737-2.726 3.214-1.988a8.89 8.89 0 0 1 4.91 7.95 9.727 9.727 0 0 1-.846 4m14.388-12.187v21.667c0 5.983-4.85 10.833-10.833 10.833H24.163c-5.983 0-10.833-4.85-10.833-10.833v-32.5c0-5.983 4.85-10.834 10.833-10.834h10.834c11.966 0 21.666 9.7 21.666 21.667Z"/></svg>