<svg xmlns="http://www.w3.org/2000/svg" width="70" height="70" fill="none"><path stroke="#E0E0E0" stroke-linecap="round" stroke-linejoin="round" stroke-width="4" d="M26.334 60.73c0-2.656 0-3.983.098-5.102 1.096-12.439 11.026-22.3 23.55-23.389 1.127-.098 2.463-.098 5.136-.098h6.64m0 0c-.433-1.483-1.31-3.05-2.874-5.847l-4.258-7.612c-1.916-3.425-2.874-5.138-4.237-6.385a11.531 11.531 0 0 0-4.19-2.449c-1.76-.577-3.732-.577-7.677-.577h-7.106c-3.945 0-5.917 0-7.677.577a11.532 11.532 0 0 0-4.19 2.449c-1.363 1.247-2.32 2.96-4.237 6.385l-4.157 7.433c-1.814 3.243-2.722 4.864-3.077 6.581a11.359 11.359 0 0 0 0 4.608c.355 1.717 1.263 3.338 3.077 6.581l4.157 7.433c1.916 3.425 2.874 5.138 4.237 6.385a11.532 11.532 0 0 0 4.19 2.449c1.76.577 3.732.577 7.677.577h7.273c3.887 0 5.831 0 7.57-.563a11.532 11.532 0 0 0 4.154-2.39c1.357-1.218 2.324-2.893 4.257-6.242l2.944-5.099 1.422-2.647c1.723-3.21 2.585-4.816 2.914-6.507a11.359 11.359 0 0 0-.04-4.53 8.479 8.479 0 0 0-.153-.61Zm-35.424-2.859a2.869 2.869 0 0 1-2.879-2.858 2.869 2.869 0 0 1 2.879-2.86c1.59 0 2.878 1.28 2.878 2.86a2.869 2.869 0 0 1-2.878 2.858Z"/></svg>