<svg xmlns="http://www.w3.org/2000/svg" width="71" height="70" fill="none"><path stroke="#E0E0E0" stroke-linecap="round" stroke-linejoin="round" stroke-width="4" d="M8.247 27.687c0-6.3 0-9.45 1.18-11.857a11.05 11.05 0 0 1 4.735-4.916c2.318-1.227 5.351-1.227 11.418-1.227h.855c1.272 0 1.908 0 2.485.182a4.05 4.05 0 0 1 1.4.778c.465.398.818.947 1.523 2.046l1.558 2.426c.705 1.099 1.058 1.648 1.524 2.046.413.352.888.617 1.4.778.576.182 1.212.182 2.484.182h6.271c6.068 0 9.101 0 11.419 1.226a11.05 11.05 0 0 1 4.734 4.916c1.18 2.407 1.18 5.557 1.18 11.858v6.187c0 6.301 0 9.451-1.18 11.858a11.051 11.051 0 0 1-4.734 4.916c-2.318 1.226-5.351 1.226-11.419 1.226h-19.5c-6.067 0-9.1 0-11.418-1.226a11.051 11.051 0 0 1-4.734-4.916c-1.18-2.407-1.18-5.557-1.18-11.858V27.687Z"/></svg>