<svg xmlns="http://www.w3.org/2000/svg" width="70" height="70" fill="none"><path stroke="#E0E0E0" stroke-linecap="round" stroke-linejoin="round" stroke-width="3.796" d="M62.085 37.709v-1.625c0-6.068 0-9.101-1.181-11.419a10.834 10.834 0 0 0-4.735-4.734c-2.317-1.18-5.35-1.18-11.418-1.18H38.48c-1.272 0-1.908 0-2.485-.176a4.063 4.063 0 0 1-1.399-.749c-.466-.383-.819-.912-1.524-1.97l-1.558-2.336c-.705-1.058-1.058-1.588-1.524-1.97a4.063 4.063 0 0 0-1.399-.75c-.577-.175-1.213-.175-2.485-.175h-.855c-6.067 0-9.1 0-11.418 1.181A10.833 10.833 0 0 0 9.1 16.541c-1.181 2.317-1.181 5.35-1.181 11.418v14.083c0 6.067 0 9.1 1.18 11.418a10.833 10.833 0 0 0 4.735 4.735c2.317 1.18 5.351 1.18 11.418 1.18h1.625M37.71 40.417a5.417 5.417 0 1 0 0-10.833 5.417 5.417 0 0 0 0 10.833Zm0 0c0 7.583 5.958 13.542 13.541 13.542M37.71 40.417v21.667m13.541-8.125a5.417 5.417 0 1 0 10.834 0 5.417 5.417 0 0 0-10.834 0Z"/></svg>