<svg xmlns="http://www.w3.org/2000/svg" width="71" height="70" fill="none"><path stroke="#E0E0E0" stroke-linecap="round" stroke-linejoin="round" stroke-width="4" d="M57 32.292a8.125 8.125 0 0 0-8.126-8.125H47.25c-1.006 0-1.51 0-1.93-.067a5.417 5.417 0 0 1-4.503-4.503c-.067-.42-.067-.924-.067-1.93v-1.625a8.125 8.125 0 0 0-8.125-8.125m2.709 43.333V32.292M46.166 51.25V37.708M24.499 51.25v-5.417M57 29.583V51.25c0 5.983-4.85 10.833-10.833 10.833H24.499c-5.983 0-10.833-4.85-10.833-10.833v-32.5c0-5.983 4.85-10.833 10.833-10.833h10.834c11.966 0 21.666 9.7 21.666 21.666Z"/></svg>